<?xml version="1.0" standalone="no"?>
<!DOCTYPE svg PUBLIC "-//W3C//DTD SVG 20010904//EN"
 "http://www.w3.org/TR/2001/REC-SVG-20010904/DTD/svg10.dtd">
<svg version="1.0" xmlns="http://www.w3.org/2000/svg"
 width="500.000000pt" height="500.000000pt" viewBox="0 0 500.000000 500.000000"
 preserveAspectRatio="xMidYMid meet">
<metadata>
Created by potrace 1.11, written by Peter Selinger 2001-2013
</metadata>
<g transform="translate(0.000000,500.000000) scale(0.100000,-0.100000)"
fill="#000000" stroke="none">
<path d="M2339 4636 c-2 -2 -35 -6 -74 -10 -270 -25 -563 -120 -827 -269 -302
-170 -587 -449 -770 -752 -141 -235 -255 -552 -284 -790 -3 -22 -9 -69 -14
-105 -18 -143 0 -491 34 -645 2 -11 9 -42 16 -70 12 -57 84 -275 104 -320 90
-196 162 -320 270 -465 112 -150 304 -337 476 -461 246 -177 584 -313 911
-365 114 -18 426 -27 524 -14 33 4 85 11 115 15 100 13 303 65 415 106 302
113 544 268 776 499 226 225 400 496 500 778 30 86 84 281 93 337 3 17 10 59
16 95 26 146 18 515 -14 687 -45 243 -144 502 -274 718 -181 299 -463 576
-762 747 -193 110 -436 206 -590 234 -14 2 -43 8 -65 14 -86 21 -208 32 -386
36 -103 2 -188 2 -190 0z m471 -100 c425 -60 834 -268 1150 -586 317 -318 529
-751 584 -1190 14 -115 15 -416 1 -510 -70 -487 -272 -893 -608 -1222 -330
-323 -722 -511 -1197 -573 -135 -17 -431 -12 -560 10 -444 75 -834 276 -1143
588 -330 334 -534 763 -587 1237 -9 79 -5 410 5 470 3 19 11 62 16 95 71 417
284 819 597 1123 310 302 702 495 1143 562 147 22 427 20 599 -4z"/>
</g>
</svg>
